<?xml version="1.0" encoding="utf-8"?>
<!-- Generator: Adobe Illustrator 16.0.0, SVG Export Plug-In . SVG Version: 6.00 Build 0)  -->
<!DOCTYPE svg PUBLIC "-//W3C//DTD SVG 1.1//EN" "http://www.w3.org/Graphics/SVG/1.1/DTD/svg11.dtd">
<svg version="1.1" id="Layer_1" xmlns="http://www.w3.org/2000/svg" xmlns:xlink="http://www.w3.org/1999/xlink" x="0px" y="0px"
	 width="43.04px" height="39.779px" viewBox="0 0 43.04 39.779" enable-background="new 0 0 43.04 39.779" xml:space="preserve">
<g>
	<g>
		<defs>
			<rect id="SVGID_1_" y="0" width="43.04" height="39.779"/>
		</defs>
		<clipPath id="SVGID_2_">
			<use xlink:href="#SVGID_1_"  overflow="visible"/>
		</clipPath>
		<path clip-path="url(#SVGID_2_)" fill="#FF4633" d="M22.474,39.779c-0.992-1.789-1.655-3.604-1.921-5.546
			c-0.65-4.76,0.731-8.958,3.587-12.732c2.901-3.833,5.317-7.926,6.778-12.537c0.381-1.201,0.611-2.412,0.254-3.672
			c-0.524-1.852-1.805-2.618-3.655-2.095c-0.75,0.211-1.459,0.56-2.283,0.787c0.453-0.551,0.843-1.171,1.369-1.642
			c2.369-2.115,5.097-2.949,8.172-1.873c2.312,0.809,3.449,2.688,3.953,4.979c0.662,3.013,0.237,5.957-0.707,8.846
			c-1.19,3.639-3.131,6.879-5.287,10.012c-1.659,2.408-3.616,4.57-5.547,6.758c-2.176,2.467-3.804,5.228-4.604,8.44
			C22.569,39.565,22.538,39.621,22.474,39.779"/>
	</g>
	<g>
		<defs>
			<rect id="SVGID_3_" y="0" width="43.04" height="39.779"/>
		</defs>
		<clipPath id="SVGID_4_">
			<use xlink:href="#SVGID_3_"  overflow="visible"/>
		</clipPath>
		<path clip-path="url(#SVGID_4_)" fill="#FF4633" d="M15.027,0.913c2.024-0.178,3.951,0.149,5.718,1.15
			c3.089,1.752,4.716,4.431,4.731,7.983c0.011,2.472-0.651,4.812-1.909,6.943c-1.126,1.911-2.37,3.751-3.487,5.666
			c-1.536,2.633-2.333,5.467-2.065,8.546c0.181,2.076,0.824,4.017,1.728,5.879c0.196,0.403,0.399,0.804,0.531,1.282
			c-0.491-0.347-0.994-0.678-1.472-1.043c-3.833-2.931-5.744-6.864-6.051-11.633c-0.207-3.223,0.64-6.227,1.945-9.115
			c0.504-1.113,1.154-2.169,1.808-3.205c1.065-1.686,1.938-3.435,2.231-5.435C19.134,5.212,18.165,2.219,15.027,0.913"/>
	</g>
	<g>
		<defs>
			<rect id="SVGID_5_" y="0" width="43.04" height="39.779"/>
		</defs>
		<clipPath id="SVGID_6_">
			<use xlink:href="#SVGID_5_"  overflow="visible"/>
		</clipPath>
		<path clip-path="url(#SVGID_6_)" fill="#FF4633" d="M12.861,5.042c0.612,1.274,0.743,2.603,0.538,3.973
			c-0.208,1.393-0.799,2.652-1.339,3.936c-2.673,6.333-2.717,12.6,0.512,18.773c0.044,0.083,0.075,0.173,0.161,0.374
			c-0.369-0.149-0.654-0.241-0.918-0.376c-2.361-1.2-4.051-3.083-5.358-5.338c-1.024-1.768-1.626-3.67-1.616-5.726
			c0.015-2.993,0.966-5.653,2.946-7.921c0.522-0.598,1.053-1.188,1.59-1.771C10.959,9.248,12.351,7.42,12.861,5.042"/>
	</g>
	<g>
		<defs>
			<rect id="SVGID_7_" y="0" width="43.04" height="39.779"/>
		</defs>
		<clipPath id="SVGID_8_">
			<use xlink:href="#SVGID_7_"  overflow="visible"/>
		</clipPath>
		<path clip-path="url(#SVGID_8_)" fill="#FF4633" d="M30.592,33.114c0.252-2.662,1-5.116,2.496-7.263
			c1.185-1.695,2.519-3.291,3.849-4.878c2.543-3.035,4.474-6.379,5.403-10.258c0.016-0.062,0.033-0.125,0.059-0.184
			c0.012-0.027,0.041-0.046,0.062-0.069C44.642,18.646,40.653,28.706,30.592,33.114"/>
	</g>
	<g>
		<defs>
			<rect id="SVGID_9_" y="0" width="43.04" height="39.779"/>
		</defs>
		<clipPath id="SVGID_10_">
			<use xlink:href="#SVGID_9_"  overflow="visible"/>
		</clipPath>
		<path clip-path="url(#SVGID_10_)" fill="#FF4633" d="M3.585,21.603c-1.293-1.085-2.218-2.405-2.818-3.955
			c-2.108-5.44,0.283-12.228,5.32-15.063c1.509-0.85,3.142-1.229,5.004-1.171c-3.493,2.155-5.629,5.235-6.93,8.937
			C2.865,14.033,2.752,17.788,3.585,21.603"/>
	</g>
</g>
</svg>
