<?xml version="1.0" encoding="utf-8"?>
<!-- Generator: Adobe Illustrator 16.0.0, SVG Export Plug-In . SVG Version: 6.00 Build 0)  -->
<!DOCTYPE svg PUBLIC "-//W3C//DTD SVG 1.1//EN" "http://www.w3.org/Graphics/SVG/1.1/DTD/svg11.dtd">
<svg version="1.1" xmlns="http://www.w3.org/2000/svg" xmlns:xlink="http://www.w3.org/1999/xlink" x="0px" y="0px"
	 width="639.335px" height="331.651px" viewBox="0 0 639.335 331.651" enable-background="new 0 0 639.335 331.651"
	 xml:space="preserve">
<g id="Layer_1" display="none">
	<g display="inline">
		<path d="M570.198,295.864H64.781V37.911h505.417V295.864z M68.781,291.864h497.417V41.911H68.781V291.864z"/>
	</g>
	<g display="inline">
		<path d="M165.055,7.406c0-1.234-0.103-2.16-0.926-2.88l-3.086-2.88c-0.411-0.309-0.72-0.72-0.72-1.131
			c0-0.206,0.206-0.514,0.515-0.514h16.354c0.309,0,0.514,0.309,0.514,0.514c0,0.412-0.309,0.823-0.617,1.131l-3.188,2.88
			c-0.72,0.72-0.926,1.646-0.926,2.88v29.932h0.206l10.08-30.241c0.411-1.131,0.206-2.057-0.617-2.777l-3.188-2.674
			c-0.411-0.411-0.72-0.72-0.72-1.131c0-0.309,0.309-0.514,0.72-0.514h15.018c0.411,0,0.72,0.206,0.72,0.514
			c0,0.412-0.411,0.823-0.822,1.234l-3.498,3.497c-0.926,0.926-1.646,2.263-2.263,4.217l-7.92,23.863l8.948,36.207
			c0.309,1.028,0.721,1.954,1.338,2.469l3.497,3.394c0.411,0.412,0.72,0.823,0.72,1.234c0,0.412-0.103,0.515-0.514,0.515h-15.326
			c-0.412,0-0.617-0.103-0.617-0.515c0-0.309,0.411-0.617,0.822-1.131l2.675-3.601c0.617-0.926,0.617-1.748,0.309-2.777
			l-5.761-23.554h-0.205l-3.601,11.006v13.166c0,1.234,0.206,2.16,0.926,2.881l3.188,2.88c0.309,0.309,0.617,0.72,0.617,1.131
			c0,0.206-0.205,0.515-0.514,0.515h-16.354c-0.309,0-0.515-0.309-0.515-0.515c0-0.411,0.309-0.822,0.617-1.131l3.188-2.88
			c0.72-0.721,0.926-1.646,0.926-2.881V7.406z"/>
		<path d="M205.993,1.543c-0.309-0.309-0.72-0.617-0.72-0.926S205.376,0,205.891,0h16.046c0.411,0,0.617,0.309,0.617,0.617
			s-0.411,0.617-0.72,0.926l-3.086,2.983c-0.72,0.72-0.926,1.646-0.926,2.88v52.87c0,15.018-5.657,16.869-11.314,16.869
			c-8.949,0-10.903-11.521-10.903-21.395c0-0.823,0.206-1.234,0.823-1.234c0.514,0,0.926,0.411,1.028,1.028
			c1.646,12.24,4.834,16.458,7.715,16.458c2.776,0,4.731-2.264,4.731-7.406V7.406c0-1.234-0.104-2.16-0.823-2.88L205.993,1.543z"/>
		<path d="M237.673,35.281h2.264c0.514,0,0.925-0.206,1.131-0.72l3.601-7.2c0.205-0.411,0.309-0.617,0.617-0.617
			s0.411,0.206,0.411,0.617v21.807c0,0.308-0.103,0.514-0.411,0.514c-0.412,0-0.515-0.309-0.721-0.72l-3.497-7.509
			c-0.206-0.514-0.617-0.72-1.131-0.72h-2.264v31.27h5.863c1.337,0,2.366-0.617,2.777-1.852l5.555-19.75
			c0.103-0.411,0.411-0.617,0.72-0.617s0.515,0.309,0.515,0.617v25.818c0,0.515-0.309,0.926-0.823,0.926h-26.641
			c-0.411,0-0.617-0.309-0.617-0.617s0.515-0.515,0.72-0.926l3.086-2.982c0.72-0.721,0.926-1.646,0.926-2.881V7.406
			c0-1.234-0.206-2.16-0.926-2.88l-3.086-2.983c-0.205-0.309-0.72-0.617-0.72-0.926S225.228,0,225.639,0h26.641
			c0.411,0,0.823,0.411,0.823,0.926v25.612c0,0.412-0.206,0.617-0.515,0.617c-0.411,0-0.72-0.309-0.823-0.72l-5.554-19.337
			c-0.412-1.337-1.338-1.954-2.675-1.954h-5.863V35.281z"/>
		<path d="M261.021,7.406c0-1.234-0.309-2.057-0.926-2.88l-2.571-2.983c-0.205-0.309-0.72-0.617-0.72-1.029
			c0-0.206,0.206-0.514,0.617-0.514h12.343c0.721,0,1.029,0.72,1.234,1.749l9.463,44.229h0.206V7.406
			c0-1.234-0.206-2.057-0.926-2.777l-2.88-3.085c-0.206-0.309-0.72-0.617-0.72-1.029c0-0.206,0.205-0.514,0.617-0.514h13.577
			c0.411,0,0.617,0.309,0.617,0.514c0,0.412-0.411,0.72-0.72,1.029l-2.572,2.983c-0.617,0.823-0.926,1.646-0.926,2.88v68.607
			c0,0.721-0.309,1.132-1.028,1.132h-4.32c-0.926,0-1.748-1.028-2.057-2.571l-12.035-56.059h-0.205v51.224
			c0,1.234,0.309,2.058,1.028,2.777l2.777,3.086c0.309,0.309,0.72,0.617,0.72,1.028c0,0.206-0.205,0.515-0.617,0.515h-13.577
			c-0.411,0-0.617-0.309-0.617-0.515c0-0.411,0.515-0.72,0.72-1.028l2.571-2.982c0.617-0.823,0.926-1.646,0.926-2.881V7.406z"/>
		<path d="M297.639,7.406c0-1.234-0.309-2.057-0.926-2.88l-2.571-2.983c-0.205-0.309-0.72-0.617-0.72-1.029
			c0-0.206,0.206-0.514,0.617-0.514h12.343c0.721,0,1.029,0.72,1.234,1.749l9.463,44.229h0.206V7.406
			c0-1.234-0.206-2.057-0.926-2.777l-2.88-3.085c-0.206-0.309-0.72-0.617-0.72-1.029c0-0.206,0.205-0.514,0.617-0.514h13.577
			c0.411,0,0.617,0.309,0.617,0.514c0,0.412-0.411,0.72-0.72,1.029l-2.572,2.983c-0.617,0.823-0.926,1.646-0.926,2.88v68.607
			c0,0.721-0.309,1.132-1.028,1.132h-4.32c-0.926,0-1.748-1.028-2.057-2.571l-12.035-56.059h-0.205v51.224
			c0,1.234,0.309,2.058,1.028,2.777l2.777,3.086c0.309,0.309,0.72,0.617,0.72,1.028c0,0.206-0.205,0.515-0.617,0.515h-13.577
			c-0.411,0-0.617-0.309-0.617-0.515c0-0.411,0.515-0.72,0.72-1.028l2.571-2.982c0.617-0.823,0.926-1.646,0.926-2.881V7.406z"/>
		<path d="M342.691,35.281h2.264c0.514,0,0.925-0.206,1.131-0.72l3.601-7.2c0.205-0.411,0.309-0.617,0.617-0.617
			s0.411,0.206,0.411,0.617v21.807c0,0.308-0.103,0.514-0.411,0.514c-0.412,0-0.515-0.309-0.721-0.72l-3.497-7.509
			c-0.206-0.514-0.617-0.72-1.131-0.72h-2.264v31.27h5.863c1.337,0,2.366-0.617,2.777-1.852l5.555-19.75
			c0.103-0.411,0.411-0.617,0.72-0.617s0.515,0.309,0.515,0.617v25.818c0,0.515-0.309,0.926-0.823,0.926h-26.641
			c-0.411,0-0.617-0.309-0.617-0.617s0.515-0.515,0.72-0.926l3.086-2.982c0.72-0.721,0.926-1.646,0.926-2.881V7.406
			c0-1.234-0.206-2.16-0.926-2.88l-3.086-2.983c-0.205-0.309-0.72-0.617-0.72-0.926S330.246,0,330.657,0h26.641
			c0.411,0,0.823,0.411,0.823,0.926v25.612c0,0.412-0.206,0.617-0.515,0.617c-0.411,0-0.72-0.309-0.823-0.72l-5.554-19.337
			c-0.412-1.337-1.338-1.954-2.675-1.954h-5.863V35.281z"/>
		<path d="M394.635,44.333c0-1.029-0.411-1.646-1.131-2.263l-2.881-2.469c-0.411-0.411-0.514-0.617-0.514-1.028
			s0.309-0.617,0.822-0.617h15.224c0.411,0,0.72,0.206,0.72,0.617s-0.205,0.617-0.514,1.028l-2.983,2.469
			c-0.72,0.515-1.028,1.234-1.028,2.263V76.63c0,0.309-0.206,0.515-0.515,0.515c-0.411,0-0.822-0.206-1.028-0.411l-3.086-2.777
			c-0.411-0.309-0.617-0.411-1.028-0.411c-0.309,0-0.617,0.103-1.028,0.411c-2.16,1.954-4.218,3.188-6.48,3.188
			c-12.857,0-13.372-23.452-13.372-40.629C375.812,23.863,376.326,0,388.978,0c3.395,0,5.452,1.543,6.48,2.366
			c0.411,0.309,1.131,0.617,1.543,0.617c0.514,0,1.543-0.72,2.571-1.646C400.498,0.514,401.115,0,401.63,0
			c0.514,0,0.72,0.72,0.72,1.749v24.686c0,0.412-0.206,0.72-0.515,0.72c-0.411,0-0.72-0.412-0.926-1.029
			c-2.16-7.714-6.583-20.983-11.108-20.983c-4.32,0-5.555,9.771-5.555,31.475c0,29.624,1.234,35.384,4.938,35.384
			c3.188,0,5.451-3.909,5.451-13.681V44.333z"/>
		<path d="M411.812,7.406c0-1.234-0.206-2.263-0.823-2.88L407.8,1.543c-0.309-0.309-0.515-0.617-0.515-0.926S407.491,0,407.902,0
			h15.737c0.412,0,0.617,0.309,0.617,0.617s-0.205,0.617-0.514,0.926l-3.188,2.983c-0.515,0.617-0.823,1.646-0.823,2.88v55.956
			c0,4.525,0.411,8.641,5.246,8.641c3.806,0,4.834-4.115,4.834-8.641V7.406c0-1.234-0.205-2.263-0.822-2.88L425.8,1.543
			c-0.309-0.309-0.514-0.617-0.514-0.926S425.491,0,425.903,0h14.092c0.411,0,0.617,0.309,0.617,0.617s-0.206,0.617-0.515,0.926
			l-3.188,2.983c-0.515,0.617-0.823,1.646-0.823,2.88v58.63c0,6.377-4.938,11.108-11.932,11.108
			c-8.126,0-12.343-4.731-12.343-11.108V7.406z"/>
		<path d="M446.989,7.406c0-1.234-0.206-2.16-0.926-2.88l-3.086-2.983c-0.205-0.309-0.72-0.617-0.72-0.926S442.464,0,442.875,0
			h13.577c10.389,0,16.561,9.977,16.561,36.618c0,33.533-6.172,40.527-16.561,40.527h-13.577c-0.411,0-0.617-0.309-0.617-0.617
			s0.515-0.515,0.72-0.926l3.086-2.982c0.72-0.721,0.926-1.646,0.926-2.881V7.406z M454.909,72.002h1.852
			c4.012,0,7.817-3.909,7.817-35.384c0-27.566-3.806-31.475-7.817-31.475h-1.852V72.002z"/>
	</g>
	<g display="inline">
		<path d="M0,148.623h34.331v8.852H12.839v6.589h19.937v8.455H12.839v8.173h22.114v9.389H0V148.623z"/>
		<path d="M41.853,148.623h12.811v31.248h19.994v10.209H41.853V148.623z"/>
		<path d="M78.249,176.364l12.188-0.763c0.264,1.979,0.801,3.487,1.612,4.524c1.319,1.678,3.205,2.517,5.656,2.517
			c1.829,0,3.238-0.429,4.228-1.286c0.99-0.858,1.485-1.853,1.485-2.984c0-1.074-0.472-2.036-1.414-2.884
			c-0.943-0.849-3.129-1.649-6.561-2.404c-5.618-1.263-9.625-2.94-12.019-5.033c-2.414-2.093-3.62-4.761-3.62-8.003
			c0-2.131,0.618-4.144,1.853-6.038c1.234-1.895,3.092-3.384,5.571-4.468s5.877-1.626,10.195-1.626
			c5.297,0,9.336,0.985,12.118,2.955c2.78,1.97,4.435,5.104,4.963,9.402l-12.075,0.707c-0.321-1.866-0.995-3.224-2.022-4.072
			c-1.028-0.848-2.446-1.272-4.256-1.272c-1.49,0-2.612,0.316-3.365,0.947c-0.754,0.632-1.131,1.4-1.131,2.305
			c0,0.66,0.311,1.255,0.933,1.782c0.604,0.547,2.036,1.056,4.298,1.527c5.6,1.206,9.61,2.427,12.033,3.662
			c2.422,1.234,4.185,2.767,5.288,4.595c1.103,1.829,1.654,3.874,1.654,6.137c0,2.658-0.735,5.109-2.206,7.353
			c-1.47,2.244-3.525,3.945-6.165,5.104c-2.64,1.159-5.967,1.739-9.982,1.739c-7.051,0-11.934-1.357-14.649-4.072
			S78.606,180.55,78.249,176.364z"/>
		<path d="M122.364,148.623h12.81v15.666l13.419-15.666h17.038l-15.128,15.647l15.807,25.81h-15.775l-8.741-17.049l-6.619,6.933
			v10.116h-12.81V148.623z"/>
		<path d="M170.523,148.623h34.331v8.852h-21.492v6.589h19.937v8.455h-19.937v8.173h22.114v9.389h-34.953V148.623z"/>
		<path d="M231.55,148.623h16.848l6.497,25.225l6.45-25.225h16.837v41.457H267.69v-31.616l-8.084,31.616h-9.496l-8.069-31.616
			v31.616H231.55V148.623z"/>
		<path d="M286.327,148.623h34.331v8.852h-21.492v6.589h19.937v8.455h-19.937v8.173h22.114v9.389h-34.953V148.623z"/>
		<path d="M328.265,148.623h11.962l15.609,22.936v-22.936h12.075v41.457h-12.075l-15.524-22.763v22.763h-12.047V148.623z"/>
		<path d="M376.509,148.623h11.962l15.609,22.936v-22.936h12.075v41.457H404.08l-15.524-22.763v22.763h-12.047V148.623z"/>
		<path d="M424.64,148.623h34.331v8.852h-21.492v6.589h19.937v8.455h-19.937v8.173h22.114v9.389H424.64V148.623z"/>
		<path d="M464.259,176.364l12.188-0.763c0.264,1.979,0.801,3.487,1.611,4.524c1.32,1.678,3.205,2.517,5.656,2.517
			c1.828,0,3.238-0.429,4.228-1.286c0.99-0.858,1.484-1.853,1.484-2.984c0-1.074-0.471-2.036-1.413-2.884
			c-0.943-0.849-3.13-1.649-6.562-2.404c-5.618-1.263-9.624-2.94-12.019-5.033c-2.413-2.093-3.619-4.761-3.619-8.003
			c0-2.131,0.617-4.144,1.852-6.038c1.235-1.895,3.092-3.384,5.571-4.468c2.479-1.084,5.877-1.626,10.194-1.626
			c5.298,0,9.337,0.985,12.118,2.955c2.78,1.97,4.435,5.104,4.963,9.402l-12.075,0.707c-0.321-1.866-0.995-3.224-2.022-4.072
			c-1.027-0.848-2.445-1.272-4.256-1.272c-1.489,0-2.611,0.316-3.365,0.947c-0.754,0.632-1.131,1.4-1.131,2.305
			c0,0.66,0.312,1.255,0.934,1.782c0.603,0.547,2.036,1.056,4.298,1.527c5.6,1.206,9.61,2.427,12.033,3.662
			c2.422,1.234,4.186,2.767,5.288,4.595c1.103,1.829,1.654,3.874,1.654,6.137c0,2.658-0.735,5.109-2.206,7.353
			c-1.471,2.244-3.525,3.945-6.165,5.104s-5.967,1.739-9.982,1.739c-7.051,0-11.934-1.357-14.648-4.072
			S464.617,180.55,464.259,176.364z"/>
		<path d="M508.375,148.623h12.81v15.666l13.419-15.666h17.038l-15.128,15.647l15.807,25.81h-15.775l-8.741-17.049l-6.619,6.933
			v10.116h-12.81V148.623z"/>
		<path d="M556.534,148.623h34.331v8.852h-21.492v6.589h19.937v8.455h-19.937v8.173h22.114v9.389h-34.953V148.623z"/>
		<path d="M598.556,190.08v-41.457h21.352c3.959,0,6.984,0.339,9.077,1.018s3.779,1.938,5.062,3.775
			c1.281,1.838,1.923,4.077,1.923,6.717c0,2.3-0.491,4.284-1.472,5.952c-0.981,1.669-2.33,3.021-4.046,4.059
			c-1.095,0.66-2.594,1.206-4.499,1.64c1.525,0.51,2.637,1.02,3.334,1.528c0.472,0.34,1.154,1.066,2.05,2.18
			c0.895,1.114,1.492,1.973,1.794,2.576l6.204,12.013h-14.476l-6.848-12.669c-0.867-1.641-1.64-2.705-2.318-3.195
			c-0.924-0.641-1.971-0.962-3.139-0.962h-1.132v16.826H598.556z M611.423,165.421h5.401c0.584,0,1.716-0.188,3.394-0.565
			c0.849-0.17,1.541-0.604,2.079-1.301c0.537-0.697,0.806-1.499,0.806-2.404c0-1.338-0.425-2.365-1.272-3.082
			c-0.849-0.717-2.442-1.075-4.779-1.075h-5.628V165.421z"/>
	</g>
	<g display="inline">
		<path d="M122.778,259.444h-3.806c-0.617,0-0.926,0.514-1.131,1.131l-5.349,20.47c-0.103,0.411-0.411,0.617-0.823,0.617
			c-0.411,0-0.514-0.206-0.514-0.721v-26.023c0-0.205,0.206-0.411,0.514-0.411h30.138c0.309,0,0.515,0.206,0.515,0.411v26.023
			c0,0.515-0.103,0.721-0.515,0.721c-0.411,0-0.72-0.206-0.822-0.617l-5.349-20.47c-0.206-0.617-0.515-1.131-1.132-1.131h-3.806
			v64.801c0,1.234,0.103,2.16,0.822,2.881l3.086,2.982c0.309,0.309,0.721,0.617,0.721,0.926s-0.104,0.617-0.617,0.617h-15.944
			c-0.514,0-0.617-0.309-0.617-0.617s0.411-0.617,0.72-0.926l3.086-2.982c0.72-0.721,0.823-1.646,0.823-2.881V259.444z"/>
		<path d="M157.441,324.245c0,1.234,0.206,2.16,0.926,2.881l3.086,2.982c0.206,0.309,0.72,0.617,0.72,0.926
			s-0.205,0.617-0.617,0.617h-16.148c-0.411,0-0.617-0.309-0.617-0.617s0.515-0.617,0.72-0.926l3.086-2.982
			c0.72-0.721,0.926-1.646,0.926-2.881v-62.332c0-1.234-0.206-2.16-0.926-2.881l-3.086-2.982c-0.205-0.309-0.72-0.617-0.72-0.926
			s0.206-0.617,0.617-0.617h12.857c10.697,0,16.252,5.657,16.252,19.029c0,11.417-4.012,16.046-7.612,18.309
			c3.498,1.852,6.583,5.863,6.583,11.521v21.497c0,0.721,0.412,1.338,0.926,1.852l3.292,3.497c0.411,0.412,0.823,0.823,0.823,1.132
			s-0.515,0.309-1.029,0.309h-5.349c-4.731,0-6.583-3.086-6.583-6.583v-22.115c0-4.525-2.777-7.92-6.377-7.92h-1.749V324.245z
			 M157.441,289.891h1.543c5.04,0,7.098-4.012,7.098-16.354c0-10.492-2.058-13.887-7.098-13.887h-1.543V289.891z"/>
		<path d="M192.414,289.787h2.264c0.514,0,0.925-0.205,1.131-0.72l3.601-7.2c0.205-0.411,0.309-0.617,0.617-0.617
			s0.411,0.206,0.411,0.617v21.807c0,0.309-0.103,0.514-0.411,0.514c-0.412,0-0.515-0.309-0.721-0.72l-3.497-7.509
			c-0.206-0.514-0.617-0.72-1.131-0.72h-2.264v31.27h5.863c1.337,0,2.366-0.617,2.777-1.852l5.555-19.749
			c0.103-0.412,0.411-0.617,0.72-0.617s0.515,0.309,0.515,0.617v25.817c0,0.515-0.309,0.926-0.823,0.926H180.38
			c-0.411,0-0.617-0.309-0.617-0.617s0.515-0.515,0.72-0.926l3.086-2.982c0.72-0.721,0.926-1.646,0.926-2.881v-62.332
			c0-1.234-0.206-2.16-0.926-2.881l-3.086-2.982c-0.205-0.309-0.72-0.617-0.72-0.926s0.206-0.617,0.617-0.617h26.641
			c0.411,0,0.823,0.411,0.823,0.926v25.612c0,0.411-0.206,0.617-0.515,0.617c-0.411,0-0.72-0.309-0.823-0.721l-5.554-19.337
			c-0.412-1.338-1.338-1.955-2.675-1.955h-5.863V289.787z"/>
		<path d="M215.763,261.913c0-1.234-0.309-2.058-0.926-2.881l-2.571-2.982c-0.205-0.309-0.72-0.617-0.72-1.028
			c0-0.206,0.206-0.515,0.617-0.515h12.343c0.721,0,1.029,0.72,1.234,1.748l9.463,44.23h0.206v-38.572
			c0-1.234-0.206-2.058-0.926-2.777l-2.88-3.086c-0.206-0.309-0.72-0.617-0.72-1.028c0-0.206,0.205-0.515,0.617-0.515h13.577
			c0.411,0,0.617,0.309,0.617,0.515c0,0.411-0.411,0.72-0.72,1.028l-2.572,2.982c-0.617,0.823-0.926,1.646-0.926,2.881v68.606
			c0,0.721-0.309,1.132-1.028,1.132h-4.32c-0.926,0-1.748-1.028-2.057-2.571l-12.035-56.059h-0.205v51.224
			c0,1.234,0.309,2.058,1.028,2.777l2.777,3.086c0.309,0.309,0.72,0.617,0.72,1.028c0,0.206-0.205,0.515-0.617,0.515h-13.577
			c-0.411,0-0.617-0.309-0.617-0.515c0-0.411,0.515-0.72,0.72-1.028l2.571-2.982c0.617-0.823,0.926-1.646,0.926-2.881V261.913z"/>
		<path d="M260.814,289.787h2.264c0.514,0,0.925-0.205,1.131-0.72l3.601-7.2c0.205-0.411,0.309-0.617,0.617-0.617
			s0.411,0.206,0.411,0.617v21.807c0,0.309-0.103,0.514-0.411,0.514c-0.412,0-0.515-0.309-0.721-0.72l-3.497-7.509
			c-0.206-0.514-0.617-0.72-1.131-0.72h-2.264v31.27h5.863c1.337,0,2.366-0.617,2.777-1.852l5.555-19.749
			c0.103-0.412,0.411-0.617,0.72-0.617s0.515,0.309,0.515,0.617v25.817c0,0.515-0.309,0.926-0.823,0.926H248.78
			c-0.411,0-0.617-0.309-0.617-0.617s0.515-0.515,0.72-0.926l3.086-2.982c0.72-0.721,0.926-1.646,0.926-2.881v-62.332
			c0-1.234-0.206-2.16-0.926-2.881l-3.086-2.982c-0.205-0.309-0.72-0.617-0.72-0.926s0.206-0.617,0.617-0.617h26.641
			c0.411,0,0.823,0.411,0.823,0.926v25.612c0,0.411-0.206,0.617-0.515,0.617c-0.411,0-0.72-0.309-0.823-0.721l-5.554-19.337
			c-0.412-1.338-1.338-1.955-2.675-1.955h-5.863V289.787z"/>
		<path d="M297.021,261.913c0-1.234-0.206-2.16-0.926-2.881l-3.086-2.982c-0.205-0.309-0.72-0.617-0.72-0.926
			s0.206-0.617,0.617-0.617h13.577c10.389,0,16.561,9.978,16.561,36.618c0,33.532-6.172,40.526-16.561,40.526h-13.577
			c-0.411,0-0.617-0.309-0.617-0.617s0.515-0.515,0.72-0.926l3.086-2.982c0.72-0.721,0.926-1.646,0.926-2.881V261.913z
			 M304.941,326.509h1.852c4.012,0,7.817-3.909,7.817-35.384c0-27.566-3.806-31.476-7.817-31.476h-1.852V326.509z"/>
		<path d="M331.89,261.913c0-1.234-0.206-2.16-0.926-2.881l-3.086-2.982c-0.205-0.309-0.72-0.617-0.72-0.926
			s0.206-0.617,0.617-0.617h16.148c0.412,0,0.617,0.309,0.617,0.617s-0.514,0.617-0.72,0.926l-3.086,2.982
			c-0.72,0.721-0.926,1.646-0.926,2.881v62.332c0,1.234,0.206,2.16,0.926,2.881l3.086,2.982c0.206,0.309,0.72,0.617,0.72,0.926
			s-0.205,0.617-0.617,0.617h-16.148c-0.411,0-0.617-0.309-0.617-0.617s0.515-0.617,0.72-0.926l3.086-2.982
			c0.72-0.721,0.926-1.646,0.926-2.881V261.913z"/>
		<path d="M370.256,281.147c0,0.309-0.206,0.515-0.617,0.515c-0.309,0-0.515-0.309-0.617-0.721
			c-1.646-8.331-6.583-21.292-11.314-21.292c-2.571,0-2.777,2.16-2.777,4.835c0,5.04,1.337,10.08,8.949,26.229
			c7.2,15.224,8.022,18.618,8.022,26.744c0,10.902-5.657,14.194-9.463,14.194c-2.777,0-4.525-1.132-5.76-1.954
			c-1.132-0.721-1.749-1.029-2.058-1.029c-0.411,0-1.234,0.721-3.291,2.264c-0.412,0.309-0.823,0.72-1.234,0.72
			c-0.412,0-0.515-0.206-0.515-0.515v-25.92c0-0.309,0.103-0.721,0.515-0.721c0.309,0,0.514,0.412,0.617,0.721
			c1.852,8.229,5.04,21.292,11.108,21.292c1.954,0,2.983-2.16,2.983-5.349c0-6.892-3.086-14.4-8.949-26.744
			c-5.555-11.726-7.611-19.543-7.611-27.052c0-9.771,4.217-12.857,9.463-12.857c1.954,0,4.218,1.132,5.76,2.365
			c0.515,0.309,1.132,0.617,1.543,0.617c0.412,0,1.44-0.72,2.366-1.646c0.926-0.822,1.543-1.337,2.16-1.337
			c0.514,0,0.72,0.515,0.72,1.132V281.147z"/>
		<path d="M380.337,261.913c0-1.234-0.206-2.16-0.926-2.881l-3.086-2.982c-0.205-0.309-0.72-0.617-0.72-0.926
			s0.206-0.617,0.617-0.617h16.148c0.412,0,0.617,0.309,0.617,0.617s-0.514,0.617-0.72,0.926l-3.086,2.982
			c-0.72,0.721-0.926,1.646-0.926,2.881v62.332c0,1.234,0.206,2.16,0.926,2.881l3.086,2.982c0.206,0.309,0.72,0.617,0.72,0.926
			s-0.205,0.617-0.617,0.617h-16.148c-0.411,0-0.617-0.309-0.617-0.617s0.515-0.617,0.72-0.926l3.086-2.982
			c0.72-0.721,0.926-1.646,0.926-2.881V261.913z"/>
		<path d="M400.188,261.913c0-1.234-0.206-2.16-0.926-2.881l-3.086-2.982c-0.205-0.309-0.72-0.617-0.72-0.926
			s0.206-0.617,0.617-0.617h15.531c8.023,0,13.578,4.217,13.578,19.955c0,13.269-4.32,21.291-13.578,21.291h-3.497v28.492
			c0,1.234,0.104,2.264,0.926,2.881l3.806,2.982c0.309,0.309,0.721,0.617,0.721,0.926s-0.206,0.617-0.617,0.617h-16.869
			c-0.411,0-0.617-0.309-0.617-0.617s0.515-0.515,0.72-0.926l3.086-2.982c0.72-0.721,0.926-1.646,0.926-2.881V261.913z
			 M408.108,290.61h2.983c4.32,0,5.657-4.731,5.657-16.148c0-11.418-1.337-14.812-5.657-14.812h-2.983V290.61z"/>
		<path d="M433.618,261.913c0-1.234-0.206-2.16-0.926-2.881l-3.086-2.982c-0.205-0.309-0.72-0.617-0.72-0.926
			s0.206-0.617,0.617-0.617h16.148c0.412,0,0.617,0.309,0.617,0.617s-0.514,0.617-0.72,0.926l-3.086,2.982
			c-0.72,0.721-0.926,1.646-0.926,2.881v64.596h4.114c1.234,0,2.264-0.309,2.675-1.543l6.377-19.955
			c0.206-0.411,0.206-0.72,0.617-0.72c0.309,0,0.515,0.309,0.515,0.72v25.2c0,0.926-0.309,1.44-1.132,1.44h-25.2
			c-0.411,0-0.617-0.309-0.617-0.617s0.515-0.515,0.72-0.926l3.086-2.982c0.72-0.721,0.926-1.646,0.926-2.881V261.913z"/>
		<path d="M472.19,289.787h2.264c0.514,0,0.925-0.205,1.131-0.72l3.601-7.2c0.205-0.411,0.309-0.617,0.617-0.617
			s0.411,0.206,0.411,0.617v21.807c0,0.309-0.103,0.514-0.411,0.514c-0.412,0-0.515-0.309-0.721-0.72l-3.497-7.509
			c-0.206-0.514-0.617-0.72-1.131-0.72h-2.264v31.27h5.863c1.337,0,2.366-0.617,2.777-1.852l5.555-19.749
			c0.103-0.412,0.411-0.617,0.72-0.617s0.515,0.309,0.515,0.617v25.817c0,0.515-0.309,0.926-0.823,0.926h-26.641
			c-0.411,0-0.617-0.309-0.617-0.617s0.515-0.515,0.72-0.926l3.086-2.982c0.72-0.721,0.926-1.646,0.926-2.881v-62.332
			c0-1.234-0.206-2.16-0.926-2.881l-3.086-2.982c-0.205-0.309-0.72-0.617-0.72-0.926s0.206-0.617,0.617-0.617h26.641
			c0.411,0,0.823,0.411,0.823,0.926v25.612c0,0.411-0.206,0.617-0.515,0.617c-0.411,0-0.72-0.309-0.823-0.721l-5.554-19.337
			c-0.412-1.338-1.338-1.955-2.675-1.955h-5.863V289.787z"/>
		<path d="M503.974,324.245c0,1.234,0.206,2.16,0.926,2.881l3.086,2.982c0.206,0.309,0.72,0.617,0.72,0.926
			s-0.205,0.617-0.617,0.617h-16.148c-0.411,0-0.617-0.309-0.617-0.617s0.515-0.617,0.72-0.926l3.086-2.982
			c0.72-0.721,0.926-1.646,0.926-2.881v-62.332c0-1.234-0.206-2.16-0.926-2.881l-3.086-2.982c-0.205-0.309-0.72-0.617-0.72-0.926
			s0.206-0.617,0.617-0.617h12.857c10.697,0,16.252,5.657,16.252,19.029c0,11.417-4.012,16.046-7.612,18.309
			c3.498,1.852,6.583,5.863,6.583,11.521v21.497c0,0.721,0.412,1.338,0.926,1.852l3.292,3.497c0.411,0.412,0.823,0.823,0.823,1.132
			s-0.515,0.309-1.029,0.309h-5.349c-4.731,0-6.583-3.086-6.583-6.583v-22.115c0-4.525-2.777-7.92-6.377-7.92h-1.749V324.245z
			 M503.974,289.891h1.543c5.04,0,7.098-4.012,7.098-16.354c0-10.492-2.058-13.887-7.098-13.887h-1.543V289.891z"/>
	</g>
</g>
<g id="Layer_2">
	<g>
		<path d="M260.002,114.557c-0.204-0.24-0.912-1.115-1.188-1.115c-0.312,0-0.36,0.312-0.36,0.659v0.252
			c0,0.576,0.756,0.624,0.756,1.212c0,0.384-0.275,0.743-2.387,0.743c-1.895,0-2.135-0.323-2.135-0.731c0-0.624,0.6-0.3,0.743-1.295
			c0.108-0.672,0.12-1.439,0.12-2.123c0-0.744,0.013-1.607-0.12-2.339c-0.155-1.031-0.791-0.588-0.791-1.319
			c0-0.191-0.108-0.863,2.519-0.863c0.563,0,1.811-0.013,1.811,0.815c0,0.636-0.659,0.252-0.659,1.667
			c0,0.156,0.012,0.504,0.228,0.504c0.324,0,1.271-1.235,1.271-1.512c0-0.252-0.191-0.371-0.191-0.636
			c0-0.887,1.583-0.839,2.158-0.839c0.576,0,1.967-0.061,1.967,0.791c0,0.983-1.247,0.396-1.667,0.815
			c-0.239,0.24-1.259,0.972-1.259,1.476c0,0.324,0.288,0.611,0.479,0.84l2.507,2.866c0.359,0.407,1.091,0.359,1.091,1.092
			c0,0.6-0.611,0.659-1.079,0.659h-2.039c-0.468,0-0.479-0.036-0.959-0.624L260.002,114.557z"/>
		<path d="M265.836,112.542c0-1.176-0.744-0.516-0.744-1.247c0-0.948,2.807-1.212,2.915-1.212c0.456,0,0.468,0.12,0.516,0.528
			c0.012,0.144,0,0.419,0.204,0.419c0.287,0,0.468-0.947,1.499-0.947c0.804,0,1.331,0.6,1.331,1.392
			c0,0.804-0.684,1.439-1.475,1.439c-0.78,0-0.996-0.685-1.308-0.685c-0.336,0-0.276,0.804-0.276,1.02
			c0,0.36,0.036,0.864,0.097,1.319c0.071,0.528,0.983,0.204,0.983,0.924c0,0.756-1.056,0.815-2.375,0.815
			c-0.552,0-2.183,0.024-2.183-0.804c0-0.504,0.552-0.504,0.684-0.923c0.096-0.3,0.132-0.983,0.132-1.319V112.542z"/>
		<path d="M275.303,113.957c0,1.415,0.707,0.899,0.707,1.535c0,0.815-1.522,0.815-2.062,0.815c-2.062,0-2.146-0.468-2.146-0.756
			c0-0.432,0.491-0.455,0.636-0.827c0.155-0.42,0.18-2.159,0.048-2.603c-0.108-0.42-0.72-0.288-0.72-0.827
			c0-0.852,3.046-1.212,3.166-1.212c0.36,0,0.372,0.276,0.372,0.528V113.957z M272.928,109.699c-0.504,0-1.043-0.228-1.043-0.815
			c0-0.792,1.583-1.115,2.194-1.115c0.479,0,1.163,0.155,1.163,0.756C275.242,109.459,273.611,109.699,272.928,109.699z"/>
		<path d="M279.61,110.119c0.216,0.036,0.408,0.084,0.492,0.084c0.12,0,0.216-0.036,0.323-0.084
			c0.108-0.036,0.216-0.072,0.324-0.072c0.552,0,1.104,1.104,1.104,1.596c0,0.323-0.276,0.563-0.588,0.563
			c-0.684,0-1.067-0.947-1.595-0.947c-0.216,0-0.432,0.18-0.432,0.407c0,0.768,2.638,0.912,2.638,2.771
			c0,1.128-1.091,1.907-2.338,1.907c-0.24,0-0.588-0.036-0.888-0.084c-0.3-0.036-0.563-0.072-0.636-0.072
			c-0.084,0-0.156,0.013-0.24,0.024c-0.071,0.012-0.144,0.023-0.228,0.023c-0.24,0-0.36-0.035-0.527-0.228
			c-0.3-0.336-0.601-1.02-0.601-1.476c0-0.312,0.108-0.563,0.456-0.563c0.528,0,1.008,1.188,1.68,1.188
			c0.239,0,0.468-0.12,0.468-0.384c0-0.708-2.352-0.791-2.352-2.771c0-1.199,0.983-1.955,2.219-1.955
			C279.131,110.047,279.383,110.071,279.61,110.119z"/>
		<path d="M286.042,113.585c0,0.804,0.336,0.996,0.66,0.996c0.371,0,0.587-0.276,0.803-0.276c0.24,0,0.408,0.336,0.408,0.552
			c0,0.792-1.367,1.487-2.578,1.487c-0.612,0-2.147-0.264-2.147-2.171v-2.471c0-0.216,0-0.3-0.06-0.336
			c-0.061-0.036-0.192-0.012-0.468-0.012c-0.312,0-0.468,0.012-0.528-0.048c-0.084-0.084-0.06-0.204-0.06-0.479
			c0-0.168-0.036-0.3,0.108-0.396l2.734-1.739c0.275-0.167,0.264-0.132,0.623-0.132c0.48,0,0.504-0.048,0.504,0.504
			c0,0.372-0.023,0.744,0.036,0.888c0.036,0.096,0.12,0.096,0.432,0.096h0.84c0.516,0,0.516,0.036,0.516,0.576
			c0,0.684-0.084,0.731-0.552,0.731h-0.827c-0.42,0-0.444,0.012-0.444,0.443V113.585z"/>
		<path d="M291.166,113.417c-0.132,0-0.323-0.036-0.323,0.168c0,0.6,0.779,1.104,1.343,1.104c0.899,0,1.344-0.54,1.596-0.54
			c0.251,0,0.468,0.372,0.468,0.601c0,0.923-1.691,1.595-2.771,1.595c-2.159,0-3.274-1.56-3.274-3.106c0-1.847,1.571-3.19,3.37-3.19
			c2.039,0,2.938,1.571,2.938,2.471c0,0.792-0.36,0.899-0.744,0.899H291.166z M292.21,111.906c0-0.432-0.264-0.768-0.708-0.768
			c-0.396,0-0.72,0.407-0.72,0.791c0,0.433,0.408,0.336,0.72,0.336C291.826,112.266,292.21,112.338,292.21,111.906z"/>
		<path d="M298.258,114.173c0,1.163,0.407,0.96,0.407,1.415c0,0.744-1.595,0.72-2.087,0.72c-0.479,0-1.703,0-1.703-0.72
			c0-0.575,0.552-0.06,0.588-1.235l0.048-1.799c0.024-0.888-0.707-0.6-0.707-1.235s2.759-1.235,2.998-1.235
			c0.264,0,0.432,0.228,0.432,0.468c0,0.072-0.012,0.144-0.012,0.216c0,0.145,0.06,0.312,0.24,0.312c0.191,0,0.3-0.251,0.539-0.503
			c0.24-0.24,0.6-0.492,1.283-0.492c2.483,0,2.063,2.435,2.184,4.258c0.06,0.947,0.551,0.731,0.551,1.247
			c0,0.216,0.049,0.72-2.206,0.72c-0.432,0-1.583,0.024-1.583-0.647c0-0.432,0.396-0.228,0.455-1.008
			c0.061-0.852,0.396-2.771-0.731-2.771c-0.768,0-0.695,0.828-0.695,1.367V114.173z"/>
		<path d="M307.029,113.585c0,0.804,0.336,0.996,0.66,0.996c0.371,0,0.587-0.276,0.803-0.276c0.24,0,0.408,0.336,0.408,0.552
			c0,0.792-1.367,1.487-2.578,1.487c-0.612,0-2.147-0.264-2.147-2.171v-2.471c0-0.216,0-0.3-0.06-0.336
			c-0.061-0.036-0.192-0.012-0.468-0.012c-0.312,0-0.468,0.012-0.528-0.048c-0.084-0.084-0.06-0.204-0.06-0.479
			c0-0.168-0.036-0.3,0.108-0.396l2.734-1.739c0.275-0.167,0.264-0.132,0.623-0.132c0.48,0,0.504-0.048,0.504,0.504
			c0,0.372-0.023,0.744,0.036,0.888c0.036,0.096,0.12,0.096,0.432,0.096h0.84c0.516,0,0.516,0.036,0.516,0.576
			c0,0.684-0.084,0.731-0.552,0.731h-0.827c-0.42,0-0.444,0.012-0.444,0.443V113.585z"/>
		<path d="M313.991,111.271c0.012-0.492,0.023-1.26-0.036-1.728c-0.145-1.031-0.924-0.587-0.924-1.247
			c0-0.455,0.528-0.647,0.912-0.647c0.312,0,2.471,0.12,3.466,0.12c0.239,0,2.65-0.12,2.818-0.12c0.468,0,0.959,0.983,0.959,1.799
			c0,0.408-0.191,0.828-0.647,0.828c-0.827,0-0.396-1.235-2.698-1.235c-0.731,0-1.044-0.061-1.044,1.679
			c0,0.216,0.013,0.42,0.708,0.42c0.924,0,0.336-1.104,1.176-1.104c0.684,0,0.731,1.308,0.731,1.775
			c0,0.563-0.061,2.015-0.876,2.015c-0.768,0,0.024-1.355-1.259-1.355c-0.528,0-0.456,0.096-0.468,1.331
			c-0.048,1.775,1.163,0.792,1.163,1.703c0,0.276,0.108,0.804-2.807,0.804c-1.919,0-2.23-0.275-2.23-0.791
			c0-0.672,0.647-0.36,0.899-0.996c0.12-0.336,0.156-1.188,0.156-1.583V111.271z"/>
		<path d="M324.273,113.417c-0.132,0-0.323-0.036-0.323,0.168c0,0.6,0.779,1.104,1.343,1.104c0.899,0,1.344-0.54,1.596-0.54
			c0.251,0,0.468,0.372,0.468,0.601c0,0.923-1.691,1.595-2.771,1.595c-2.159,0-3.274-1.56-3.274-3.106c0-1.847,1.571-3.19,3.37-3.19
			c2.039,0,2.938,1.571,2.938,2.471c0,0.792-0.36,0.899-0.744,0.899H324.273z M325.317,111.906c0-0.432-0.264-0.768-0.708-0.768
			c-0.396,0-0.72,0.407-0.72,0.791c0,0.433,0.408,0.336,0.72,0.336C324.934,112.266,325.317,112.338,325.317,111.906z"/>
		<path d="M331.545,114.029c0,0.216-0.012,0.611,0.048,0.803c0.132,0.433,0.672,0.229,0.672,0.732c0,0.803-1.463,0.743-1.979,0.743
			c-0.539,0-2.219,0.06-2.219-0.791c0-0.42,0.517-0.265,0.66-0.708c0.156-0.492,0.156-1.991,0.156-2.579
			c0-0.468,0.023-1.367-0.084-1.906c-0.181-0.888-0.888-0.576-0.888-1.26c0-1.043,3.118-1.295,3.286-1.295
			c0.407,0,0.504,0.264,0.504,0.623c0,0.276-0.156,1.596-0.156,3.311V114.029z"/>
		<path d="M336.152,114.029c0,0.216-0.012,0.611,0.048,0.803c0.132,0.433,0.672,0.229,0.672,0.732c0,0.803-1.463,0.743-1.979,0.743
			c-0.539,0-2.219,0.06-2.219-0.791c0-0.42,0.517-0.265,0.66-0.708c0.156-0.492,0.156-1.991,0.156-2.579
			c0-0.468,0.023-1.367-0.084-1.906c-0.181-0.888-0.888-0.576-0.888-1.26c0-1.043,3.118-1.295,3.286-1.295
			c0.407,0,0.504,0.264,0.504,0.623c0,0.276-0.156,1.596-0.156,3.311V114.029z"/>
		<path d="M340.172,113.417c-0.132,0-0.323-0.036-0.323,0.168c0,0.6,0.779,1.104,1.343,1.104c0.899,0,1.344-0.54,1.596-0.54
			c0.251,0,0.468,0.372,0.468,0.601c0,0.923-1.691,1.595-2.771,1.595c-2.159,0-3.274-1.56-3.274-3.106c0-1.847,1.571-3.19,3.37-3.19
			c2.039,0,2.938,1.571,2.938,2.471c0,0.792-0.36,0.899-0.744,0.899H340.172z M341.216,111.906c0-0.432-0.264-0.768-0.708-0.768
			c-0.396,0-0.72,0.407-0.72,0.791c0,0.433,0.408,0.336,0.72,0.336C340.832,112.266,341.216,112.338,341.216,111.906z"/>
		<path d="M347.155,110.119c0.216,0.036,0.408,0.084,0.492,0.084c0.12,0,0.216-0.036,0.323-0.084
			c0.108-0.036,0.216-0.072,0.324-0.072c0.552,0,1.104,1.104,1.104,1.596c0,0.323-0.276,0.563-0.588,0.563
			c-0.684,0-1.067-0.947-1.595-0.947c-0.216,0-0.432,0.18-0.432,0.407c0,0.768,2.638,0.912,2.638,2.771
			c0,1.128-1.091,1.907-2.338,1.907c-0.24,0-0.588-0.036-0.888-0.084c-0.3-0.036-0.563-0.072-0.636-0.072
			c-0.084,0-0.156,0.013-0.24,0.024c-0.071,0.012-0.144,0.023-0.228,0.023c-0.24,0-0.36-0.035-0.527-0.228
			c-0.3-0.336-0.601-1.02-0.601-1.476c0-0.312,0.108-0.563,0.456-0.563c0.528,0,1.008,1.188,1.68,1.188
			c0.239,0,0.468-0.12,0.468-0.384c0-0.708-2.352-0.791-2.352-2.771c0-1.199,0.983-1.955,2.219-1.955
			C346.676,110.047,346.928,110.071,347.155,110.119z"/>
		<path d="M353.167,110.119c0.216,0.036,0.408,0.084,0.492,0.084c0.12,0,0.216-0.036,0.323-0.084
			c0.108-0.036,0.216-0.072,0.324-0.072c0.552,0,1.104,1.104,1.104,1.596c0,0.323-0.276,0.563-0.588,0.563
			c-0.684,0-1.067-0.947-1.595-0.947c-0.216,0-0.432,0.18-0.432,0.407c0,0.768,2.638,0.912,2.638,2.771
			c0,1.128-1.091,1.907-2.338,1.907c-0.24,0-0.588-0.036-0.888-0.084c-0.3-0.036-0.563-0.072-0.636-0.072
			c-0.084,0-0.156,0.013-0.24,0.024c-0.071,0.012-0.144,0.023-0.228,0.023c-0.24,0-0.36-0.035-0.527-0.228
			c-0.3-0.336-0.601-1.02-0.601-1.476c0-0.312,0.108-0.563,0.456-0.563c0.528,0,1.008,1.188,1.68,1.188
			c0.239,0,0.468-0.12,0.468-0.384c0-0.708-2.352-0.791-2.352-2.771c0-1.199,0.983-1.955,2.219-1.955
			C352.688,110.047,352.939,110.071,353.167,110.119z"/>
		<path d="M360.127,114.353c-0.049-0.071-0.336-0.479-0.456-0.479c-0.132,0-0.12,0.264-0.12,0.336
			c-0.036,1.067,0.492,0.707,0.492,1.271c0,0.336-0.084,0.827-1.955,0.827c-0.983,0-2.1,0.036-2.1-0.756
			c0-0.575,0.636-0.155,0.672-1.163c0.036-0.84,0.096-1.979,0.096-2.507v-1.715c0-0.972-0.923-0.323-0.923-1.008
			c0-0.803,2.71-1.391,3.346-1.391c0.324,0,0.348,0.191,0.336,0.456l-0.06,2.542c-0.024,0.768-0.024,1.067,0.264,1.067
			c0.191,0,0.959-0.407,0.959-0.588c0-0.168-0.239-0.264-0.239-0.503c0-0.624,1.224-0.66,1.643-0.66c0.492,0,1.8,0.012,1.8,0.756
			c0,0.54-0.444,0.288-1.164,0.731c-0.12,0.06-0.588,0.3-0.588,0.443c0,0.3,1.403,2.027,1.632,2.303
			c0.539,0.672,1.199,0.66,1.199,1.164c0,0.371-0.276,0.695-1.199,0.695h-1.691c-0.479,0-0.54-0.024-0.827-0.396L360.127,114.353z"
			/>
		<path d="M371.226,113.31c0,2.11,0.72,0.959,0.72,1.606c0,0.684-0.936,1.428-1.812,1.428c-0.947,0-0.972-0.611-1.271-0.611
			c-0.144,0-0.3,0.155-0.563,0.3c-0.264,0.155-0.623,0.312-1.175,0.312c-0.996,0-1.991-0.527-1.991-1.715
			c0-0.852,0.815-1.907,2.927-1.907c0.371,0,0.539,0.024,0.539-0.408c0-0.396-0.012-1.223-0.563-1.223
			c-0.72,0-0.792,1.295-1.859,1.295c-0.384,0-0.671-0.275-0.671-0.659c0-1.02,2.026-1.68,3.166-1.68
			c0.684,0,2.555,0.264,2.555,2.063V113.31z M367.627,114.365c0,0.312,0.168,0.647,0.517,0.647c0.455,0,0.491-0.492,0.491-0.852
			c0-0.264,0.012-0.563-0.324-0.563C367.903,113.598,367.627,113.981,367.627,114.365z"/>
		<path d="M373.173,113.801c0-1.259-0.072-1.535-0.132-1.595c-0.156-0.156-0.804,0-0.804-0.684c0-0.815,2.471-1.439,3.358-1.439
			c0.287,0,0.335,0.096,0.335,0.36c0,0.084,0.013,0.251,0.133,0.251c0.167,0,0.839-0.647,1.822-0.647
			c1.571,0,2.411,1.571,2.411,2.975c0,1.607-1.14,3.322-2.891,3.322c-0.563,0-1.127-0.3-1.235-0.3c-0.168,0-0.191,0.252-0.191,0.384
			c0,0.911,0.743,0.624,0.743,1.211c0,0.672-1.092,0.756-1.56,0.756c-1.606,0-2.866-0.588-2.866-1.199
			c0-0.54,0.492-0.336,0.708-0.804c0.12-0.252,0.168-0.6,0.168-1.931V113.801z M376.459,111.822c-0.432,0-0.576,0.18-0.576,2.362
			c0,0.396,0.192,0.54,0.612,0.54c0.743,0,0.839-0.804,0.839-1.379C377.334,112.77,377.215,111.822,376.459,111.822z"/>
	</g>
	<g>
		<path d="M303.757,221.022c0-2.543,2.026-4.342,4.642-4.342c3.31,0,4.581,2.914,4.581,4.462c0,2.578-2.278,4.281-4.726,4.281
			C305.724,225.424,303.757,223.577,303.757,221.022z M307.847,218.468c-0.672,0-1.008,0.695-1.008,1.283
			c0,1.02,0.72,3.886,2.015,3.886c0.731,0,1.044-0.636,1.044-1.283C309.897,221.262,309.25,218.468,307.847,218.468z"/>
		<path d="M316.751,219.199c0.216,0.036,0.408,0.084,0.492,0.084c0.12,0,0.216-0.036,0.323-0.084
			c0.108-0.036,0.216-0.072,0.324-0.072c0.552,0,1.104,1.104,1.104,1.596c0,0.323-0.276,0.563-0.588,0.563
			c-0.684,0-1.067-0.947-1.595-0.947c-0.216,0-0.432,0.18-0.432,0.407c0,0.768,2.638,0.912,2.638,2.771
			c0,1.128-1.091,1.907-2.338,1.907c-0.24,0-0.588-0.036-0.888-0.084c-0.3-0.036-0.563-0.072-0.636-0.072
			c-0.084,0-0.156,0.013-0.24,0.024c-0.071,0.012-0.144,0.023-0.228,0.023c-0.24,0-0.36-0.035-0.527-0.228
			c-0.3-0.336-0.601-1.02-0.601-1.476c0-0.312,0.108-0.563,0.456-0.563c0.528,0,1.008,1.188,1.68,1.188
			c0.239,0,0.468-0.12,0.468-0.384c0-0.708-2.352-0.791-2.352-2.771c0-1.199,0.983-1.955,2.219-1.955
			C316.271,219.127,316.523,219.151,316.751,219.199z"/>
		<path d="M323.051,223.109c0,0.216-0.012,0.611,0.048,0.803c0.132,0.433,0.672,0.229,0.672,0.732c0,0.803-1.463,0.743-1.979,0.743
			c-0.539,0-2.219,0.06-2.219-0.791c0-0.42,0.517-0.265,0.66-0.708c0.156-0.492,0.156-1.991,0.156-2.579
			c0-0.468,0.023-1.367-0.084-1.906c-0.181-0.888-0.888-0.576-0.888-1.26c0-1.043,3.118-1.295,3.286-1.295
			c0.407,0,0.504,0.264,0.504,0.623c0,0.276-0.156,1.596-0.156,3.311V223.109z"/>
		<path d="M324.12,222.485c0-2.146,1.883-3.358,3.862-3.358c2.099,0,3.298,1.644,3.298,3.131c0,1.967-2.111,3.166-3.874,3.166
			C325.631,225.424,324.12,224.38,324.12,222.485z M327.467,220.542c-0.396,0-0.612,0.372-0.588,0.72
			c0.048,0.756,0.264,2.603,1.091,2.65c0.456,0.024,0.552-0.359,0.552-0.743C328.521,222.629,328.282,220.542,327.467,220.542z"/>
	</g>
</g>
</svg>
