<?xml version="1.0" encoding="utf-8"?>
<!-- Generator: Adobe Illustrator 16.0.0, SVG Export Plug-In . SVG Version: 6.00 Build 0)  -->
<!DOCTYPE svg PUBLIC "-//W3C//DTD SVG 1.1//EN" "http://www.w3.org/Graphics/SVG/1.1/DTD/svg11.dtd">
<svg version="1.1" id="Layer_1" xmlns="http://www.w3.org/2000/svg" xmlns:xlink="http://www.w3.org/1999/xlink" x="0px" y="0px"
	 width="639.333px" height="331.654px" viewBox="0 0 639.333 331.654" enable-background="new 0 0 639.333 331.654"
	 xml:space="preserve">
<g id="Layer_1_1_">
	<g>
		<path fill="#FF4633" d="M570.244,295.864H64.825V37.911h505.417v257.953H570.244z M68.825,291.864h497.417V41.911H68.825V291.864z
			"/>
	</g>
	<g>
		<path fill="#FF4633" d="M165.098,7.406c0-1.234-0.103-2.16-0.926-2.88l-3.086-2.88c-0.411-0.31-0.72-0.721-0.72-1.132
			c0-0.205,0.206-0.514,0.515-0.514h16.354c0.309,0,0.514,0.31,0.514,0.514c0,0.412-0.309,0.823-0.617,1.132l-3.188,2.88
			c-0.72,0.72-0.926,1.646-0.926,2.88v29.932h0.206l10.08-30.241c0.411-1.131,0.206-2.057-0.617-2.776l-3.188-2.674
			c-0.411-0.411-0.72-0.721-0.72-1.131c0-0.31,0.309-0.515,0.72-0.515h15.018c0.411,0,0.72,0.206,0.72,0.515
			c0,0.411-0.411,0.822-0.822,1.233l-3.498,3.497c-0.926,0.926-1.646,2.263-2.263,4.217l-7.92,23.863l8.948,36.207
			c0.309,1.027,0.721,1.953,1.338,2.469l3.497,3.396c0.411,0.412,0.72,0.821,0.72,1.232c0,0.412-0.103,0.516-0.514,0.516h-15.326
			c-0.412,0-0.617-0.104-0.617-0.516c0-0.31,0.411-0.617,0.822-1.131l2.675-3.601c0.617-0.928,0.617-1.748,0.309-2.777
			l-5.761-23.555h-0.205l-3.601,11.006v13.166c0,1.233,0.206,2.16,0.926,2.882l3.188,2.88c0.309,0.31,0.617,0.72,0.617,1.131
			c0,0.206-0.205,0.517-0.514,0.517h-16.354c-0.309,0-0.515-0.311-0.515-0.517c0-0.411,0.309-0.821,0.617-1.131l3.188-2.88
			c0.72-0.722,0.926-1.646,0.926-2.882V7.406z"/>
		<path fill="#FF4633" d="M206.037,1.543c-0.309-0.309-0.72-0.617-0.72-0.926S205.42,0,205.934,0h16.046
			c0.411,0,0.614,0.31,0.614,0.617s-0.408,0.617-0.72,0.926l-3.086,2.983c-0.72,0.72-0.926,1.646-0.926,2.88v52.87
			c0,15.019-5.657,16.869-11.314,16.869c-8.949,0-10.903-11.521-10.903-21.396c0-0.823,0.206-1.233,0.823-1.233
			c0.514,0,0.926,0.41,1.028,1.027c1.646,12.24,4.834,16.458,7.715,16.458c2.776,0,4.731-2.264,4.731-7.406V7.406
			c0-1.234-0.104-2.16-0.823-2.88L206.037,1.543z"/>
		<path fill="#FF4633" d="M237.716,35.281h2.266c0.514,0,0.926-0.206,1.131-0.72l3.602-7.2c0.205-0.411,0.312-0.617,0.617-0.617
			c0.311,0,0.41,0.206,0.41,0.617v21.807c0,0.31-0.102,0.515-0.41,0.515c-0.412,0-0.516-0.31-0.721-0.721l-3.498-7.509
			c-0.205-0.514-0.617-0.72-1.131-0.72h-2.266v31.27h5.863c1.338,0,2.367-0.617,2.777-1.853l5.555-19.75
			c0.105-0.41,0.412-0.617,0.721-0.617c0.311,0,0.516,0.31,0.516,0.617v25.817c0,0.517-0.311,0.927-0.822,0.927h-26.643
			c-0.411,0-0.617-0.31-0.617-0.617c0-0.309,0.515-0.516,0.72-0.926l3.086-2.981c0.72-0.722,0.925-1.646,0.925-2.882V7.405
			c0-1.234-0.205-2.16-0.925-2.88l-3.086-2.983c-0.205-0.309-0.72-0.617-0.72-0.926c0-0.31,0.206-0.617,0.617-0.617h26.641
			c0.41,0,0.822,0.411,0.822,0.926v25.612c0,0.412-0.205,0.617-0.518,0.617c-0.412,0-0.721-0.31-0.82-0.72l-5.557-19.338
			c-0.412-1.337-1.338-1.953-2.676-1.953h-5.863L237.716,35.281L237.716,35.281z"/>
		<path fill="#FF4633" d="M261.066,7.406c0-1.234-0.311-2.058-0.926-2.88l-2.572-2.983c-0.205-0.309-0.719-0.617-0.719-1.029
			c0-0.205,0.203-0.514,0.615-0.514h12.344c0.721,0,1.027,0.72,1.232,1.749l9.463,44.229h0.207V7.405
			c0-1.234-0.207-2.058-0.926-2.777l-2.881-3.085c-0.205-0.309-0.719-0.617-0.719-1.029c0-0.205,0.201-0.514,0.613-0.514h13.576
			c0.412,0,0.617,0.31,0.617,0.514c0,0.412-0.41,0.721-0.719,1.029l-2.572,2.983c-0.617,0.822-0.926,1.646-0.926,2.88v68.606
			c0,0.722-0.311,1.134-1.029,1.134h-4.32c-0.926,0-1.744-1.028-2.057-2.572l-12.035-56.058h-0.205V69.74
			c0,1.233,0.312,2.058,1.029,2.777l2.777,3.086c0.309,0.309,0.719,0.615,0.719,1.026c0,0.206-0.205,0.517-0.617,0.517h-13.574
			c-0.412,0-0.617-0.311-0.617-0.517c0-0.411,0.516-0.72,0.721-1.026l2.57-2.982c0.617-0.823,0.928-1.646,0.928-2.881L261.066,7.406
			L261.066,7.406z"/>
		<path fill="#FF4633" d="M297.683,7.406c0-1.234-0.311-2.058-0.928-2.88l-2.57-2.983c-0.205-0.309-0.721-0.617-0.721-1.029
			c0-0.205,0.205-0.514,0.617-0.514h12.342c0.723,0,1.029,0.72,1.234,1.749l9.463,44.229h0.207V7.405
			c0-1.234-0.207-2.058-0.926-2.777l-2.881-3.085c-0.205-0.309-0.723-0.617-0.723-1.029c0-0.205,0.205-0.514,0.617-0.514h13.576
			c0.412,0,0.617,0.31,0.617,0.514c0,0.412-0.41,0.721-0.719,1.029l-2.572,2.983c-0.617,0.822-0.926,1.646-0.926,2.88v68.606
			c0,0.722-0.311,1.134-1.029,1.134h-4.32c-0.926,0-1.748-1.028-2.057-2.572l-12.033-56.058h-0.201V69.74
			c0,1.234,0.311,2.058,1.029,2.777l2.777,3.086c0.309,0.309,0.719,0.615,0.719,1.026c0,0.206-0.205,0.517-0.617,0.517h-13.576
			c-0.412,0-0.617-0.311-0.617-0.517c0-0.411,0.516-0.72,0.721-1.026l2.57-2.982c0.617-0.823,0.928-1.646,0.928-2.881L297.683,7.406
			L297.683,7.406z"/>
		<path fill="#FF4633" d="M342.736,35.281H345c0.516,0,0.926-0.206,1.131-0.72l3.604-7.2c0.205-0.411,0.309-0.617,0.617-0.617
			c0.307,0,0.408,0.206,0.408,0.617v21.807c0,0.31-0.102,0.515-0.408,0.515c-0.412,0-0.518-0.31-0.723-0.721l-3.498-7.509
			c-0.205-0.514-0.615-0.72-1.131-0.72h-2.264v31.27h5.863c1.338,0,2.363-0.617,2.775-1.853l5.555-19.75
			c0.105-0.41,0.41-0.617,0.723-0.617c0.309,0,0.514,0.31,0.514,0.617v25.817c0,0.517-0.309,0.927-0.822,0.927h-26.641
			c-0.412,0-0.619-0.31-0.619-0.617c0-0.309,0.518-0.516,0.719-0.926l3.09-2.981c0.719-0.722,0.926-1.646,0.926-2.882V7.405
			c0-1.234-0.207-2.16-0.926-2.88l-3.09-2.983c-0.201-0.309-0.719-0.617-0.719-0.926c0-0.31,0.207-0.617,0.619-0.617h26.641
			c0.41,0,0.822,0.411,0.822,0.926v25.612c0,0.412-0.205,0.617-0.514,0.617c-0.412,0-0.725-0.31-0.824-0.72l-5.553-19.338
			c-0.412-1.337-1.338-1.953-2.68-1.953h-5.859V35.281L342.736,35.281z"/>
		<path fill="#FF4633" d="M394.677,44.333c0-1.029-0.408-1.646-1.131-2.263l-2.881-2.469c-0.41-0.411-0.514-0.617-0.514-1.028
			s0.309-0.617,0.82-0.617h15.227c0.41,0,0.719,0.206,0.719,0.617s-0.205,0.617-0.514,1.028l-2.982,2.469
			c-0.721,0.515-1.025,1.233-1.025,2.263V76.63c0,0.311-0.207,0.516-0.518,0.516c-0.412,0-0.82-0.205-1.027-0.41l-3.088-2.777
			c-0.408-0.309-0.613-0.411-1.025-0.411c-0.311,0-0.617,0.104-1.027,0.411c-2.16,1.954-4.219,3.188-6.479,3.188
			c-12.857,0-13.371-23.451-13.371-40.628c0-12.652,0.514-36.516,13.166-36.516c3.395,0,5.451,1.543,6.479,2.366
			c0.412,0.309,1.131,0.617,1.543,0.617c0.516,0,1.543-0.72,2.572-1.646c0.926-0.822,1.543-1.337,2.057-1.337
			c0.518,0,0.723,0.72,0.723,1.749v24.687c0,0.412-0.205,0.72-0.518,0.72c-0.41,0-0.719-0.412-0.926-1.029
			c-2.16-7.714-6.582-20.982-11.107-20.982c-4.318,0-5.555,9.771-5.555,31.475c0,29.624,1.234,35.384,4.939,35.384
			c3.188,0,5.447-3.909,5.447-13.681V44.335h-0.004V44.333z"/>
		<path fill="#FF4633" d="M411.857,7.406c0-1.234-0.207-2.263-0.824-2.88l-3.189-2.983c-0.309-0.309-0.516-0.617-0.516-0.926
			S407.535,0,407.945,0h15.738c0.41,0,0.615,0.31,0.615,0.617s-0.205,0.617-0.514,0.926l-3.188,2.983
			c-0.52,0.617-0.822,1.646-0.822,2.88v55.956c0,4.524,0.41,8.642,5.246,8.642c3.805,0,4.834-4.115,4.834-8.642V7.406
			c0-1.234-0.205-2.263-0.822-2.88l-3.189-2.983c-0.309-0.309-0.514-0.617-0.514-0.926S425.535,0,425.947,0h14.092
			c0.41,0,0.617,0.31,0.617,0.617s-0.207,0.617-0.516,0.926l-3.189,2.983c-0.516,0.617-0.824,1.646-0.824,2.88v58.63
			c0,6.377-4.938,11.108-11.932,11.108c-8.125,0-12.342-4.731-12.342-11.108V7.406H411.857z"/>
		<path fill="#FF4633" d="M447.035,7.406c0-1.234-0.207-2.16-0.926-2.88l-3.086-2.983c-0.205-0.309-0.723-0.617-0.723-0.926
			S442.505,0,442.917,0h13.576c10.389,0,16.561,9.978,16.561,36.618c0,33.532-6.172,40.526-16.561,40.526h-13.576
			c-0.412,0-0.617-0.31-0.617-0.617c0-0.309,0.518-0.516,0.723-0.926l3.086-2.981c0.719-0.722,0.926-1.646,0.926-2.882V7.406z
			 M454.953,72.002h1.852c4.014,0,7.816-3.909,7.816-35.384c0-27.566-3.805-31.475-7.816-31.475h-1.852V72.002z"/>
	</g>
	<g>
		<path fill="#FF4633" d="M0.044,148.623h34.331v8.853H12.883v6.59H32.82v8.455H12.883v8.172h22.114v9.39H0.044V148.623z"/>
		<path fill="#FF4633" d="M41.897,148.623h12.811v31.249h19.994v10.209H41.898L41.897,148.623L41.897,148.623z"/>
		<path fill="#FF4633" d="M78.292,176.363l12.188-0.762c0.264,1.979,0.801,3.485,1.612,4.522c1.319,1.678,3.205,2.519,5.656,2.519
			c1.829,0,3.238-0.431,4.228-1.287c0.99-0.856,1.485-1.854,1.485-2.983c0-1.074-0.472-2.035-1.414-2.884
			c-0.943-0.851-3.129-1.649-6.561-2.404c-5.618-1.264-9.625-2.938-12.019-5.033c-2.414-2.093-3.62-4.761-3.62-8.003
			c0-2.131,0.618-4.144,1.853-6.038c1.234-1.895,3.092-3.384,5.571-4.468s5.877-1.626,10.195-1.626
			c5.297,0,9.336,0.984,12.118,2.955c2.78,1.97,4.435,5.104,4.963,9.402l-12.075,0.707c-0.321-1.867-0.995-3.226-2.022-4.072
			c-1.028-0.848-2.446-1.272-4.256-1.272c-1.49,0-2.612,0.316-3.365,0.947c-0.754,0.632-1.131,1.399-1.131,2.306
			c0,0.659,0.311,1.255,0.933,1.781c0.604,0.547,2.036,1.058,4.298,1.527c5.6,1.205,9.61,2.427,12.033,3.662
			c2.422,1.232,4.185,2.767,5.288,4.595c1.103,1.829,1.654,3.875,1.654,6.136c0,2.658-0.735,5.109-2.206,7.354
			c-1.47,2.244-3.525,3.945-6.165,5.104c-2.64,1.16-5.967,1.74-9.982,1.74c-7.051,0-11.934-1.356-14.649-4.072
			C80.187,184.001,78.65,180.549,78.292,176.363z"/>
		<path fill="#FF4633" d="M122.408,148.623h12.81v15.666l13.419-15.666h17.038l-15.128,15.646l15.807,25.812h-15.775l-8.741-17.05
			l-6.619,6.933v10.117h-12.81L122.408,148.623L122.408,148.623z"/>
		<path fill="#FF4633" d="M170.567,148.623h34.331v8.853h-21.492v6.59h19.937v8.455h-19.937v8.172h22.114v9.39h-34.953V148.623z"/>
		<path fill="#FF4633" d="M231.593,148.623h16.85l6.498,25.226l6.449-25.226h16.838v41.458h-10.492v-31.617l-8.084,31.617h-9.496
			l-8.068-31.617v31.617h-10.492L231.593,148.623L231.593,148.623z"/>
		<path fill="#FF4633" d="M286.371,148.623h34.332v8.853H299.21v6.59h19.938v8.455H299.21v8.172h22.113v9.39h-34.953V148.623z"/>
		<path fill="#FF4633" d="M328.308,148.623h11.961l15.609,22.937v-22.937h12.074v41.458h-12.074l-15.523-22.765v22.765h-12.047
			V148.623L328.308,148.623z"/>
		<path fill="#FF4633" d="M376.552,148.623h11.965l15.605,22.937v-22.937h12.076v41.458h-12.076l-15.521-22.765v22.765h-12.049
			V148.623L376.552,148.623z"/>
		<path fill="#FF4633" d="M424.685,148.623h34.33v8.853h-21.492v6.59h19.938v8.455h-19.938v8.172h22.111v9.39h-34.949V148.623
			L424.685,148.623z"/>
		<path fill="#FF4633" d="M464.302,176.363l12.189-0.762c0.264,1.979,0.801,3.485,1.611,4.522c1.316,1.678,3.205,2.519,5.652,2.519
			c1.828,0,3.238-0.431,4.23-1.287c0.99-0.856,1.48-1.854,1.48-2.983c0-1.074-0.471-2.035-1.41-2.884
			c-0.943-0.851-3.133-1.649-6.562-2.404c-5.617-1.264-9.623-2.938-12.018-5.033c-2.414-2.093-3.619-4.761-3.619-8.003
			c0-2.131,0.617-4.144,1.852-6.038c1.236-1.894,3.092-3.384,5.57-4.468c2.477-1.084,5.877-1.626,10.193-1.626
			c5.299,0,9.338,0.984,12.117,2.955c2.779,1.97,4.438,5.104,4.965,9.402l-12.074,0.707c-0.322-1.867-0.996-3.226-2.023-4.072
			s-2.445-1.272-4.256-1.272c-1.488,0-2.611,0.316-3.365,0.947c-0.754,0.632-1.131,1.399-1.131,2.306
			c0,0.659,0.312,1.255,0.938,1.781c0.602,0.547,2.033,1.058,4.297,1.527c5.6,1.205,9.607,2.427,12.033,3.662
			c2.422,1.232,4.186,2.767,5.285,4.595c1.105,1.829,1.654,3.875,1.654,6.136c0,2.658-0.734,5.109-2.205,7.354
			c-1.471,2.246-3.523,3.945-6.166,5.104c-2.639,1.16-5.967,1.74-9.979,1.74c-7.055,0-11.938-1.356-14.648-4.072
			C466.199,184.001,464.66,180.549,464.302,176.363z"/>
		<path fill="#FF4633" d="M508.417,148.623h12.812v15.666l13.42-15.666h17.037l-15.127,15.646l15.807,25.812h-15.775l-8.742-17.05
			l-6.617,6.933v10.117h-12.811v-41.458H508.417L508.417,148.623z"/>
		<path fill="#FF4633" d="M556.578,148.623h34.33v8.853h-21.492v6.59h19.939v8.455h-19.939v8.172h22.115v9.39h-34.953V148.623z"/>
		<path fill="#FF4633" d="M598.599,190.081v-41.458h21.354c3.959,0,6.984,0.339,9.076,1.019c2.094,0.68,3.779,1.938,5.061,3.774
			c1.281,1.838,1.922,4.076,1.922,6.717c0,2.302-0.488,4.284-1.471,5.952c-0.979,1.669-2.33,3.021-4.047,4.061
			c-1.094,0.658-2.594,1.205-4.498,1.639c1.525,0.511,2.637,1.021,3.334,1.529c0.471,0.34,1.154,1.063,2.049,2.181
			c0.896,1.112,1.492,1.973,1.795,2.575l6.203,12.013h-14.475l-6.85-12.668c-0.867-1.642-1.639-2.705-2.316-3.196
			c-0.926-0.641-1.973-0.962-3.141-0.962h-1.131v16.826L598.599,190.081L598.599,190.081z M611.466,165.421h5.4
			c0.584,0,1.717-0.188,3.395-0.564c0.852-0.17,1.541-0.604,2.076-1.302c0.537-0.696,0.811-1.497,0.811-2.403
			c0-1.338-0.428-2.364-1.271-3.082c-0.85-0.717-2.441-1.074-4.779-1.074h-5.629v8.427L611.466,165.421L611.466,165.421z"/>
	</g>
	<g>
		<path fill="#FF4633" d="M122.822,259.443h-3.806c-0.617,0-0.926,0.515-1.131,1.131l-5.349,20.472
			c-0.103,0.41-0.411,0.617-0.823,0.617c-0.411,0-0.514-0.207-0.514-0.724v-26.021c0-0.205,0.206-0.412,0.514-0.412h30.138
			c0.309,0,0.515,0.207,0.515,0.412v26.021c0,0.517-0.103,0.724-0.515,0.724c-0.411,0-0.72-0.207-0.822-0.617l-5.349-20.472
			c-0.206-0.616-0.515-1.131-1.132-1.131h-3.806v64.802c0,1.232,0.103,2.16,0.822,2.881l3.086,2.982
			c0.309,0.309,0.721,0.615,0.721,0.926c0,0.309-0.104,0.617-0.617,0.617H118.81c-0.514,0-0.617-0.311-0.617-0.617
			c0-0.31,0.411-0.617,0.72-0.926l3.086-2.982c0.72-0.721,0.823-1.646,0.823-2.881V259.443L122.822,259.443z"/>
		<path fill="#FF4633" d="M157.485,324.245c0,1.232,0.206,2.16,0.926,2.881l3.086,2.982c0.206,0.309,0.72,0.615,0.72,0.926
			c0,0.309-0.205,0.617-0.617,0.617h-16.148c-0.411,0-0.617-0.311-0.617-0.617c0-0.31,0.515-0.617,0.72-0.926l3.086-2.982
			c0.72-0.721,0.926-1.646,0.926-2.881v-62.332c0-1.234-0.206-2.16-0.926-2.882l-3.086-2.981c-0.205-0.31-0.72-0.615-0.72-0.926
			c0-0.31,0.206-0.617,0.617-0.617h12.857c10.697,0,16.252,5.658,16.252,19.029c0,11.418-4.012,16.047-7.612,18.309
			c3.498,1.854,6.583,5.863,6.583,11.521v21.498c0,0.721,0.412,1.338,0.926,1.852l3.292,3.496c0.411,0.412,0.823,0.824,0.823,1.133
			c0,0.311-0.515,0.311-1.029,0.311h-5.349c-4.731,0-6.583-3.088-6.583-6.582v-22.116c0-4.525-2.777-7.92-6.377-7.92h-1.749
			L157.485,324.245L157.485,324.245z M157.485,289.89h1.543c5.04,0,7.098-4.012,7.098-16.354c0-10.492-2.058-13.889-7.098-13.889
			h-1.543V289.89z"/>
		<path fill="#FF4633" d="M192.458,289.788h2.264c0.514,0,0.925-0.205,1.131-0.721l3.601-7.199c0.205-0.412,0.309-0.617,0.617-0.617
			s0.411,0.205,0.411,0.617v21.807c0,0.309-0.103,0.514-0.411,0.514c-0.412,0-0.515-0.309-0.721-0.721l-3.497-7.508
			c-0.206-0.514-0.617-0.721-1.131-0.721h-2.264v31.27h5.863c1.337,0,2.366-0.617,2.777-1.852l5.555-19.748
			c0.103-0.412,0.411-0.617,0.72-0.617s0.515,0.309,0.515,0.617v25.814c0,0.518-0.309,0.928-0.823,0.928h-26.641
			c-0.411,0-0.617-0.311-0.617-0.617c0-0.31,0.515-0.518,0.72-0.926l3.086-2.982c0.72-0.721,0.926-1.646,0.926-2.881v-62.332
			c0-1.234-0.206-2.16-0.926-2.882l-3.086-2.981c-0.205-0.31-0.72-0.615-0.72-0.926c0-0.31,0.206-0.617,0.617-0.617h26.641
			c0.411,0,0.823,0.412,0.823,0.928v25.611c0,0.41-0.206,0.617-0.515,0.617c-0.411,0-0.72-0.312-0.823-0.725l-5.554-19.335
			c-0.412-1.338-1.338-1.955-2.675-1.955h-5.863V289.788L192.458,289.788z"/>
		<path fill="#FF4633" d="M215.806,261.913c0-1.234-0.309-2.058-0.923-2.882l-2.571-2.981c-0.205-0.31-0.72-0.615-0.72-1.025
			c0-0.207,0.206-0.518,0.617-0.518h12.343c0.724,0,1.029,0.723,1.234,1.748l9.462,44.23h0.205v-38.572
			c0-1.234-0.205-2.058-0.926-2.777l-2.879-3.086c-0.207-0.31-0.723-0.615-0.723-1.025c0-0.207,0.205-0.518,0.617-0.518h13.578
			c0.41,0,0.617,0.311,0.617,0.518c0,0.41-0.412,0.719-0.721,1.025l-2.572,2.981c-0.617,0.824-0.926,1.646-0.926,2.882v68.604
			c0,0.725-0.312,1.135-1.027,1.135h-4.32c-0.926,0-1.748-1.027-2.057-2.57l-12.037-56.062h-0.205v51.227
			c0,1.232,0.312,2.059,1.028,2.775l2.774,3.088c0.312,0.309,0.723,0.615,0.723,1.025c0,0.207-0.205,0.518-0.617,0.518h-13.577
			c-0.411,0-0.617-0.311-0.617-0.518c0-0.41,0.515-0.719,0.72-1.025l2.571-2.982c0.617-0.822,0.926-1.646,0.926-2.881v-62.332
			H215.806z"/>
		<path fill="#FF4633" d="M260.859,289.788h2.264c0.514,0,0.924-0.205,1.131-0.721l3.604-7.199c0.205-0.412,0.309-0.617,0.617-0.617
			c0.307,0,0.408,0.205,0.408,0.617v21.807c0,0.309-0.104,0.514-0.408,0.514c-0.412,0-0.518-0.309-0.725-0.721l-3.496-7.508
			c-0.207-0.514-0.617-0.721-1.131-0.721h-2.264v31.27h5.861c1.338,0,2.365-0.617,2.777-1.852l5.555-19.748
			c0.104-0.412,0.41-0.617,0.721-0.617c0.309,0,0.516,0.309,0.516,0.617v25.814c0,0.518-0.309,0.928-0.824,0.928h-26.641
			c-0.41,0-0.617-0.311-0.617-0.617c0-0.31,0.52-0.518,0.721-0.926l3.088-2.982c0.721-0.721,0.928-1.646,0.928-2.881v-62.332
			c0-1.234-0.207-2.16-0.928-2.882l-3.088-2.981c-0.201-0.31-0.721-0.615-0.721-0.926c0-0.31,0.207-0.617,0.617-0.617h26.641
			c0.412,0,0.824,0.412,0.824,0.928v25.611c0,0.41-0.207,0.617-0.516,0.617c-0.41,0-0.721-0.312-0.822-0.725l-5.555-19.335
			c-0.412-1.338-1.338-1.955-2.674-1.955h-5.863V289.788L260.859,289.788z"/>
		<path fill="#FF4633" d="M297.066,261.913c0-1.234-0.207-2.16-0.926-2.882l-3.088-2.981c-0.203-0.31-0.721-0.615-0.721-0.926
			c0-0.31,0.207-0.617,0.617-0.617h13.578c10.389,0,16.561,9.979,16.561,36.619c0,33.531-6.172,40.525-16.561,40.525h-13.578
			c-0.41,0-0.617-0.311-0.617-0.617c0-0.31,0.518-0.518,0.721-0.928l3.088-2.98c0.719-0.721,0.926-1.646,0.926-2.881V261.913z
			 M304.986,326.508h1.852c4.014,0,7.816-3.908,7.816-35.383c0-27.565-3.807-31.477-7.816-31.477h-1.852V326.508z"/>
		<path fill="#FF4633" d="M331.935,261.913c0-1.234-0.207-2.16-0.93-2.882l-3.084-2.981c-0.205-0.31-0.721-0.615-0.721-0.926
			c0-0.31,0.207-0.617,0.617-0.617h16.145c0.412,0,0.617,0.311,0.617,0.617c0,0.311-0.514,0.616-0.719,0.926l-3.086,2.981
			c-0.721,0.722-0.926,1.646-0.926,2.882v62.332c0,1.232,0.205,2.16,0.926,2.881l3.086,2.982c0.205,0.309,0.719,0.615,0.719,0.926
			c0,0.309-0.205,0.617-0.617,0.617h-16.145c-0.41,0-0.617-0.311-0.617-0.617c0-0.31,0.516-0.617,0.721-0.926l3.084-2.982
			c0.723-0.721,0.93-1.646,0.93-2.881V261.913z"/>
		<path fill="#FF4633" d="M370.298,281.146c0,0.312-0.205,0.518-0.613,0.518c-0.312,0-0.518-0.311-0.617-0.721
			c-1.646-8.33-6.584-21.292-11.314-21.292c-2.57,0-2.775,2.16-2.775,4.834c0,5.041,1.338,10.079,8.947,26.229
			c7.199,15.225,8.021,18.619,8.021,26.744c0,10.902-5.656,14.195-9.463,14.195c-2.777,0-4.525-1.135-5.762-1.955
			c-1.133-0.723-1.75-1.029-2.059-1.029c-0.41,0-1.234,0.721-3.291,2.264c-0.412,0.312-0.822,0.723-1.234,0.723
			c-0.408,0-0.514-0.205-0.514-0.518v-25.92c0-0.309,0.105-0.721,0.514-0.721c0.312,0,0.518,0.412,0.617,0.721
			c1.855,8.23,5.041,21.293,11.109,21.293c1.953,0,2.98-2.16,2.98-5.35c0-6.895-3.086-14.4-8.947-26.744
			c-5.557-11.727-7.611-19.543-7.611-27.052c0-9.771,4.217-12.856,9.463-12.856c1.955,0,4.219,1.133,5.76,2.365
			c0.518,0.311,1.135,0.616,1.543,0.616c0.412,0,1.441-0.721,2.367-1.646c0.926-0.821,1.543-1.338,2.16-1.338
			c0.514,0,0.719,0.517,0.719,1.133V281.146L370.298,281.146z"/>
		<path fill="#FF4633" d="M380.38,261.913c0-1.234-0.207-2.16-0.926-2.882l-3.086-2.981c-0.205-0.31-0.721-0.615-0.721-0.926
			c0-0.31,0.207-0.617,0.617-0.617h16.146c0.412,0,0.617,0.311,0.617,0.617c0,0.311-0.514,0.616-0.721,0.926l-3.086,2.981
			c-0.723,0.722-0.928,1.646-0.928,2.882v62.332c0,1.232,0.205,2.16,0.928,2.881l3.086,2.982c0.207,0.309,0.721,0.615,0.721,0.926
			c0,0.309-0.205,0.617-0.617,0.617h-16.146c-0.41,0-0.617-0.311-0.617-0.617c0-0.31,0.516-0.617,0.721-0.926l3.086-2.982
			c0.719-0.721,0.926-1.646,0.926-2.881V261.913z"/>
		<path fill="#FF4633" d="M400.234,261.913c0-1.234-0.207-2.16-0.93-2.882l-3.086-2.981c-0.201-0.31-0.719-0.615-0.719-0.926
			c0-0.31,0.205-0.617,0.617-0.617h15.531c8.02,0,13.578,4.219,13.578,19.955c0,13.27-4.32,21.291-13.578,21.291h-3.496v28.492
			c0,1.232,0.104,2.264,0.926,2.881l3.805,2.98c0.312,0.311,0.727,0.617,0.727,0.928c0,0.309-0.207,0.617-0.617,0.617h-16.869
			c-0.412,0-0.617-0.311-0.617-0.617c0-0.31,0.516-0.518,0.719-0.928l3.088-2.98c0.719-0.721,0.926-1.646,0.926-2.881v-62.332
			H400.234L400.234,261.913z M408.154,290.61h2.98c4.32,0,5.656-4.73,5.656-16.148s-1.336-14.812-5.656-14.812h-2.98V290.61z"/>
		<path fill="#FF4633" d="M433.662,261.913c0-1.234-0.207-2.16-0.926-2.882l-3.086-2.981c-0.205-0.31-0.723-0.615-0.723-0.926
			c0-0.31,0.205-0.617,0.617-0.617h16.148c0.412,0,0.617,0.311,0.617,0.617c0,0.311-0.518,0.616-0.723,0.926l-3.086,2.981
			c-0.721,0.722-0.926,1.646-0.926,2.882v64.596h4.113c1.232,0,2.264-0.309,2.676-1.543l6.377-19.955
			c0.205-0.41,0.205-0.719,0.617-0.719c0.309,0,0.514,0.309,0.514,0.719v25.201c0,0.926-0.309,1.439-1.131,1.439h-25.199
			c-0.41,0-0.617-0.311-0.617-0.617c0-0.31,0.518-0.518,0.723-0.926l3.086-2.982c0.721-0.721,0.926-1.646,0.926-2.881v-62.332
			H433.662z"/>
		<path fill="#FF4633" d="M472.236,289.788h2.264c0.514,0,0.924-0.205,1.131-0.721l3.604-7.199c0.205-0.412,0.309-0.617,0.613-0.617
			c0.311,0,0.412,0.205,0.412,0.617v21.807c0,0.309-0.104,0.514-0.412,0.514c-0.408,0-0.514-0.309-0.721-0.721l-3.496-7.508
			c-0.207-0.514-0.617-0.721-1.131-0.721h-2.264v31.27h5.861c1.338,0,2.365-0.617,2.775-1.852l5.555-19.748
			c0.105-0.412,0.412-0.617,0.723-0.617c0.309,0,0.516,0.309,0.516,0.617v25.814c0,0.518-0.309,0.928-0.824,0.928h-26.641
			c-0.41,0-0.617-0.311-0.617-0.617c0-0.31,0.518-0.518,0.723-0.926l3.086-2.982c0.721-0.721,0.926-1.646,0.926-2.881v-62.332
			c0-1.234-0.205-2.16-0.926-2.882l-3.086-2.981c-0.205-0.31-0.723-0.615-0.723-0.926c0-0.31,0.207-0.617,0.617-0.617h26.641
			c0.412,0,0.824,0.412,0.824,0.928v25.611c0,0.41-0.207,0.617-0.516,0.617c-0.41,0-0.723-0.312-0.822-0.725l-5.555-19.335
			c-0.412-1.338-1.338-1.955-2.678-1.955h-5.859V289.788L472.236,289.788z"/>
		<path fill="#FF4633" d="M504.019,324.245c0,1.232,0.205,2.16,0.926,2.881l3.086,2.982c0.205,0.309,0.719,0.615,0.719,0.926
			c0,0.309-0.205,0.617-0.617,0.617h-16.145c-0.412,0-0.617-0.311-0.617-0.617c0-0.31,0.514-0.617,0.719-0.926l3.086-2.982
			c0.723-0.721,0.928-1.646,0.928-2.881v-62.332c0-1.234-0.205-2.16-0.928-2.882l-3.086-2.981c-0.205-0.31-0.719-0.615-0.719-0.926
			c0-0.31,0.205-0.617,0.617-0.617h12.854c10.697,0,16.252,5.658,16.252,19.029c0,11.418-4.012,16.047-7.609,18.309
			c3.498,1.854,6.584,5.863,6.584,11.521v21.498c0,0.721,0.412,1.338,0.926,1.852l3.291,3.496c0.412,0.412,0.824,0.824,0.824,1.133
			c0,0.311-0.518,0.311-1.029,0.311h-5.35c-4.73,0-6.582-3.088-6.582-6.582v-22.116c0-4.525-2.777-7.92-6.377-7.92h-1.75v29.208
			H504.019z M504.019,289.89h1.543c5.039,0,7.098-4.012,7.098-16.354c0-10.492-2.059-13.889-7.098-13.889h-1.543V289.89z"/>
	</g>
</g>
<g id="Layer_2" display="none">
	<text transform="matrix(1 0 0 1 345.5649 240.0876)" display="inline" font-family="'CooperBlackStd'" font-size="12">Kristent Fellesskap</text>
	<text transform="matrix(1 0 0 1 394.561 349.1687)" display="inline" font-family="'CooperBlackStd'" font-size="12">Oslo</text>
</g>
</svg>
